<svg xmlns="http://www.w3.org/2000/svg" xml:space="preserve" width="1500" height="1500" data-id="lg_271vhh95f8zSC0Qy0S" data-version="1" viewBox="0 0 1500 1500"><path stroke="transparent" d="M0 0h1500v1500H0z"/><g data-padding="20"><g transform="translate(-1370.344 -1379.785)scale(2.70113)"><g fill="#aaa" stroke="#bcbcbc" stroke-width="2" transform="translate(175.99 154.05)scale(1.15)"><path d="M437.765 583.782h185.314"/>undefined
        undefined</g><path fill="#fff" d="M784.863 721.057c13.73 0 24.858-11.13 24.858-24.858 0-13.73-11.13-24.859-24.858-24.859-13.73 0-24.859 11.13-24.859 24.86s11.13 24.857 24.86 24.857m-46.489 33.402v51.367c12.831-14 42.3.592 42.3.592V754.46c-29.61-18.09-42.3 0-42.3 0m49.35 0v51.958s28.2-14.593 42.3-.592V754.46s-12.69-18.09-42.3 0m-5.64.437h4.23v52.17h-4.23Z"/><path fill="#fff" d="M779.053 750.681h10.293c11.548-6.67 20.403-7.783 26.875-6.726a35.165 35.165 0 0 0-62.632-.197c6.33-.677 14.748.72 25.464 6.923"/><rect width="363.943" height="50.85" x="453.429" y="673.897" fill="none" rx="0" ry="0" transform="matrix(.96 0 0 .96 175 189.95)"/><path fill="#fff" d="M633.862 845.228q-4.877 0-7.728 4.06-2.85 4.061-2.85 11.751 0 9.331 4.271 12.058 1.296.816 2.4 1.056t2.438.24q4.282 0 8.947-1.037l.125.605q-.73.26-3.907.672-3.178.403-5.165.403t-3.456-.279-3.11-1.19q-1.642-.902-2.784-2.39-1.143-1.498-1.92-4.09-.778-2.592-.778-6.048 0-7.642 3.495-11.923 3.676-4.493 10.022-4.493 1.95 0 4.214.374 2.266.365 3.216.71l.52 6.222-.817.297-.567-4.617q-3.494-2.38-6.566-2.38m10.1 14.6q0-7.123 3.648-11.356 3.657-4.234 9.1-4.234 12.74 0 12.74 15.59 0 7.172-3.629 11.3t-9.11 4.128q-12.75 0-12.75-15.428m2.938-.086q0 14.65 9.812 14.65 4.233 0 7.017-3.888t2.784-10.762q0-14.64-9.8-14.64-4.197 0-7 3.926-2.813 3.936-2.813 10.714m25.661-15.072 8.64-.048q0 .048.048.653l-2.937.26v16.33q0 7.515 2.63 9.973 1.258 1.21 2.554 1.67 1.296.452 3.043.452t3.177-.48q1.421-.47 2.765-1.728 2.851-2.592 2.851-9.888v-15.639q-.086-.566-.518-.605l-3.11-.307q-.048-.259-.048-.643l8.208-.048q0 .048.048.653l-3.59.384v16.243q0 13.133-9.802 13.133-2.38 0-4.176-.49-1.786-.499-3.476-1.843-3.494-2.717-3.494-10.8v-15.81q-.173-.52-.518-.558l-2.247-.22q-.048-.26-.048-.644m31.891.864-2.285-.26.038-.652h10.503q4.445 0 6.864 1.95 2.42 1.938 2.42 5.788 0 2.505-1.92 5.222-1.92 2.726-3.61 3.504l7.996 12.998 2.112.135q0 .038-.038.643l-4.714.048-8.208-13.306h-5.74v12.442l3.023.173q0 .038-.048.643l-8.678.048.038-.605 2.247-.307q.307-.038.48-.384v-27.648q-.135-.394-.48-.432m8.035-.26h-4.618v15.678h7.383q2.246-2.544 3.024-4.512.777-1.968.777-3.82 0-3.63-1.68-5.492-1.69-1.853-4.886-1.853m24.586 28.771q3.196 0 5.616-1.882t2.42-5.72q0-1.729-.846-2.958-.845-1.238-2.227-1.9-1.383-.673-3.024-1.172t-3.283-1.056q-1.642-.566-3.024-1.344t-2.228-2.198q-.835-1.43-.835-3.418 0-3.456 2.371-5.654 2.381-2.208 6.356-2.208t7.603.912l.47 5.395-.816.345-.432-3.408q-3.197-2.38-6.01-2.38-2.803 0-4.703 1.708-1.9 1.71-1.9 5.117 0 1.987 1.592 3.16 1.604 1.16 3.87 1.813 2.265.643 4.53 1.47 2.276.815 3.87 2.764 1.602 1.94 1.602 5.05 0 4.194-2.985 6.306-2.976 2.122-7.863 2.122-4.876 0-8.467-2.64l.048-4.58.816-.21.087 2.457q1.17 1.642 3.196 2.88 2.036 1.23 4.196 1.23m16.33-28.513-2.295-.26.048-.652h18.49l-.049.134.567 6.087-.864.345-.69-5.702h-11.75v13.958h10.32q.22.04.392-.105.173-.154.173-.413l.172-2.986.692-.086v7.392q-.048 0-.653.038l-.173-2.976h-10.925V874h12.912l.826-6.912.816.22-.643 7.556h-10.973l-8.688.048.048-.605 2.246-.307q.432-.038.52-.557v-27.35q-.088-.519-.52-.557m33.475-.307q-4.876 0-7.728 4.06-2.85 4.061-2.85 11.751 0 9.331 4.271 12.058 1.296.816 2.4 1.056t2.44.24q4.28 0 8.946-1.037l.125.605q-.73.26-3.908.672-3.177.403-5.164.403t-3.456-.279-3.11-1.19q-1.642-.902-2.785-2.39-1.142-1.498-1.92-4.09-.777-2.592-.777-6.048 0-7.642 3.494-11.923 3.677-4.493 10.022-4.493 1.95 0 4.215.374 2.265.365 3.216.71l.518 6.222-.816.297-.566-4.617q-3.495-2.38-6.567-2.38m10.1 14.6q0-7.123 3.648-11.356 3.658-4.234 9.101-4.234 12.74 0 12.74 15.59 0 7.172-3.63 11.3t-9.11 4.128q-12.749 0-12.749-15.428m2.938-.086q0 14.65 9.811 14.65 4.234 0 7.018-3.888t2.784-10.762q0-14.64-9.802-14.64-4.195 0-6.998 3.926-2.813 3.936-2.813 10.714m27.657-14.208-2.285-.26.038-.652h5.924l16.8 29.03-.212-27.513q-.172-.432-.48-.48l-3.974-.346q-.038-.259-.038-.643l8.208-.048q0 .048.038.653l-2.765.297v29.29h-3.149l-16.81-29.03.222 28.128 4.924.26q0 .037-.048.642l-8.678.048.038-.605 2.247-.307q.432-.038.518-.557v-27.35q-.086-.519-.518-.557m29.376 0-2.285-.26.038-.652h5.924l16.8 29.03-.212-27.513q-.172-.432-.48-.48l-3.974-.346q-.038-.259-.038-.643l8.208-.048q0 .048.038.653l-2.765.297v29.29h-3.149l-16.81-29.03.222 28.128 4.924.26q0 .037-.048.642l-8.678.048.038-.605 2.247-.307q.432-.038.518-.557v-27.35q-.086-.519-.518-.557m29.424 0-2.295-.26.048-.652h18.49l-.048.134.566 6.087-.864.345-.69-5.702h-11.75v13.958h10.32q.22.04.392-.105.173-.154.173-.413l.173-2.986.691-.086v7.392q-.048 0-.653.038l-.172-2.976h-10.925V874h12.912l.825-6.912.816.22-.643 7.556h-10.972l-8.688.048.048-.605 2.247-.307q.432-.038.518-.557v-27.35q-.086-.519-.518-.557m33.475-.307q-4.877 0-7.728 4.06-2.85 4.061-2.85 11.751 0 9.331 4.271 12.058 1.296.816 2.4 1.056t2.438.24q4.282 0 8.947-1.037l.125.605q-.73.26-3.907.672-3.178.403-5.165.403t-3.456-.279-3.11-1.19q-1.642-.902-2.784-2.39-1.143-1.498-1.92-4.09-.778-2.592-.778-6.048 0-7.642 3.495-11.923 3.676-4.493 10.022-4.493 1.95 0 4.214.374 2.266.365 3.216.71l.52 6.222-.817.297-.567-4.617q-3.494-2.38-6.566-2.38m18.835 28.213v-27.955h-7.43l-.69 5.702-.817-.345.432-5.357h-.048l.086-.346.048-.518.086.048v-.048h19.613l.557 6.22-.864.346-.69-5.702h-7.556v28.56l3.148.173q0 .038-.038.643l-8.64.048q0-.394.038-.605l2.247-.307q.432-.038.518-.557"/><rect width="153.956" height="25.99" x="558.423" y="686.327" fill="none" rx="0" ry="0" transform="matrix(.96 0 0 .96 170.906 221.796)"/><path fill="#bcbcbc" d="m720.315 884.631-.105 1.324h-6.423v5.808h5.962l-.115 1.325h-5.847v7h-1.507V884.63Zm1.958 4.416 1.44-.116v11.156h-1.44Zm.663-2.967q-.442 0-.672-.278-.23-.288-.23-.73t.25-.72q.258-.278.7-.278t.71.278q.278.28.278.76 0 .49-.297.73t-.74.24m5.137 2.85v1.324q1.651-1.21 3.13-1.277 1.353 0 2.083.327.72.336 1.2.94.47.605.47 1.71v8.13h-1.43v-7.756q0-.816-.355-1.258-.71-.816-2.16-.816-1.392.067-2.938.903v8.928h-1.44v-11.04Zm14.783 0q1.297 0 2.468.777v-6.077l1.44-.105v16.05h-.115q-.682.29-2.285.442-1.594.154-2.218.154-1.853 0-3.072-.93-1.699-1.278-1.699-4.216t1.584-4.512q1.574-1.584 3.898-1.584m2.467 9.735v-8.007q-1.104-.422-2.16-.422-2.035 0-3.187 1.238-1.162 1.23-1.162 3.504t1.258 3.207q.902.7 2.284.7t2.967-.22m11.53-14.035 4.77 9.024 4.57-9.024h1.546l-5.415 10.262v5.194h-1.392v-5.213l-5.692-10.243Zm10.953 12.624q-.403-1.056-.403-2.468 0-2.716 1.526-4.272 1.527-1.564 3.821-1.564 3.6 0 4.723 2.918.423 1.056.423 2.477 0 2.717-1.527 4.272t-3.82 1.555q-3.6 0-4.743-2.918m1.037-2.62q0 2.024 1.046 3.138t2.707 1.114q1.652 0 2.756-1.18t1.104-3.208q0-2.035-1.037-3.148-1.037-1.114-2.707-1.114-1.66 0-2.765 1.18t-1.104 3.217m13.555 4.041q.49.182 1.546.182t2.736-.864v-8.937l1.44-.116v11.156h-1.44v-1.2q-1.632 1.267-3.332 1.267-2.12 0-3.072-1.267-.48-.615-.48-1.719v-8.12l1.43-.117v7.863q0 1.373 1.172 1.872m14.928-9.408-.576 1.325q-.355-.2-.749-.2-.403 0-.44.018-.846 0-1.69.605-.855.614-1.45 1.363v7.71h-1.43v-11.04l1.43-.117v2.477q.815-1.037 1.391-1.459 1.066-.797 2.036-.835.134-.029.48-.029.355 0 .998.182m13.354 10.82h-1.392v-14.132h-4.368l.115-1.324h9.993l-.105 1.324h-4.243Zm7.468-1.412q.48.182 1.546.182 1.056 0 2.736-.864v-8.937l1.43-.116v11.156h-1.43v-1.2q-1.632 1.267-3.33 1.267-2.123 0-3.073-1.267-.49-.615-.49-1.719v-8.12l1.44-.117v7.863q0 1.373 1.171 1.872m13.162-.182.26 1.19q-.394.404-1.43.404-1.46 0-1.969-.759-.864-.816-.864-2.208v-6.797h-1.239l.202-1.276h1.037v-2.19l1.44-.134v2.324h2.563v1.276h-2.563v7.152q0 1.287 1.325 1.287.576 0 1.238-.269m1.71-1.238q-.404-1.056-.404-2.468 0-2.716 1.526-4.272 1.527-1.564 3.821-1.564 3.6 0 4.723 2.918.423 1.056.423 2.477 0 2.717-1.527 4.272t-3.82 1.555q-3.6 0-4.743-2.918m1.037-2.62q0 2.024 1.046 3.138t2.708 1.114q1.65 0 2.755-1.18t1.104-3.208q0-2.035-1.037-3.148-1.037-1.114-2.707-1.114-1.66 0-2.765 1.18t-1.104 3.217m17.164-5.367-.576 1.325q-.345-.2-.748-.2-.394 0-.442.018-.835 0-1.69.605-.844.614-1.44 1.363v7.71h-1.44v-11.04l1.44-.117v2.477q.816-1.037 1.383-1.459 1.065-.797 2.035-.835.134-.029.49-.029.345 0 .988.182"/></g><path fill="transparent" stroke="transparent" stroke-width="2.865" d="M250 414.756h1000v670.488H250z"/></g></svg>